G04 EAGLE Gerber RS-274X export*
G75*
%MOMM*%
%FSLAX34Y34*%
%LPD*%
%INBottom Copper*%
%IPPOS*%
%AMOC8*
5,1,8,0,0,1.08239X$1,22.5*%
G01*
%ADD10R,2.500000X2.500000*%
%ADD11R,1.508000X1.508000*%
%ADD12C,1.508000*%
%ADD13C,1.905000*%
%ADD14C,1.524000*%
%ADD15R,1.428000X1.428000*%
%ADD16C,1.428000*%
%ADD17C,3.316000*%
%ADD18R,2.032000X2.032000*%
%ADD19C,2.032000*%
%ADD20C,1.879600*%
%ADD21R,1.879600X1.879600*%
%ADD22C,1.000000*%
%ADD23C,0.254000*%


D10*
X998220Y86360D03*
X998220Y-86360D03*
X601980Y-86360D03*
X601980Y86360D03*
X530860Y96520D03*
X358140Y96520D03*
X358140Y-299720D03*
X530860Y-299720D03*
D11*
X863600Y-190500D03*
D12*
X863600Y-215900D03*
X863600Y-241300D03*
X863600Y-266700D03*
X863600Y-292100D03*
X863600Y-317500D03*
X863600Y-342900D03*
X863600Y-368300D03*
X863600Y-393700D03*
X863600Y-419100D03*
X863600Y-444500D03*
X863600Y-469900D03*
X711200Y-190500D03*
X711200Y-215900D03*
X711200Y-241300D03*
X711200Y-266700D03*
X711200Y-292100D03*
X711200Y-317500D03*
X711200Y-368300D03*
X711200Y-393700D03*
X711200Y-444500D03*
X711200Y-469900D03*
X711200Y-419100D03*
X711200Y-342900D03*
X863600Y-495300D03*
X863600Y-520700D03*
X863600Y-546100D03*
X711200Y-495300D03*
X711200Y-520700D03*
X711200Y-546100D03*
D13*
X393700Y-419100D03*
X419100Y-419100D03*
X444500Y-419100D03*
X469900Y-419100D03*
X495300Y-419100D03*
X520700Y-419100D03*
X546100Y-419100D03*
X368300Y-419100D03*
X393700Y-546100D03*
X419100Y-546100D03*
X444500Y-546100D03*
X469900Y-546100D03*
X495300Y-546100D03*
X520700Y-546100D03*
X546100Y-546100D03*
X368300Y-546100D03*
D14*
X495300Y-589280D02*
X495300Y-604520D01*
X469900Y-604520D02*
X469900Y-589280D01*
X444500Y-589280D02*
X444500Y-604520D01*
X419100Y-604520D02*
X419100Y-589280D01*
D15*
X968300Y-620600D03*
D16*
X993300Y-620600D03*
X1013300Y-620600D03*
X1038300Y-620600D03*
D17*
X937600Y-647700D03*
X1069000Y-647700D03*
D18*
X1104900Y-114300D03*
D19*
X1104900Y-64300D03*
D20*
X622300Y-558800D03*
X622300Y-533400D03*
X622300Y-508000D03*
X622300Y-482600D03*
X622300Y-457200D03*
X622300Y-431800D03*
X952500Y-304800D03*
X952500Y-330200D03*
X952500Y-355600D03*
X952500Y-381000D03*
X952500Y-406400D03*
D21*
X1041400Y-393700D03*
D20*
X1066800Y-393700D03*
X1092200Y-393700D03*
X1117600Y-393700D03*
D21*
X1041400Y-469900D03*
D20*
X1066800Y-469900D03*
X1092200Y-469900D03*
X1117600Y-469900D03*
D21*
X1041400Y-546100D03*
D20*
X1066800Y-546100D03*
X1092200Y-546100D03*
X1117600Y-546100D03*
D21*
X1092200Y-304800D03*
D20*
X1092200Y-279400D03*
X1092200Y-254000D03*
D21*
X952500Y-469900D03*
D20*
X952500Y-495300D03*
X952500Y-520700D03*
D18*
X1104900Y76200D03*
D19*
X1104900Y26200D03*
D22*
X723900Y-190500D02*
X711200Y-190500D01*
X977900Y63500D02*
X996950Y82550D01*
X977900Y63500D02*
X723900Y-190500D01*
X996950Y82550D02*
X998220Y86360D01*
X977900Y63500D02*
X1104900Y-63500D01*
X1104900Y-64300D01*
X711200Y-266700D02*
X565150Y-266700D01*
X533400Y-298450D01*
X530860Y-299720D01*
X571500Y-533400D02*
X622300Y-533400D01*
X571500Y-533400D02*
X558800Y-520700D01*
X533400Y-520700D01*
X520700Y-533400D01*
X520700Y-546100D01*
X1041400Y-615950D02*
X1092200Y-615950D01*
X1101725Y-606425D02*
X1143000Y-565150D01*
X1101725Y-606425D02*
X1092200Y-615950D01*
X1143000Y-565150D02*
X1143000Y-355600D01*
X1114425Y-327025D02*
X1092200Y-304800D01*
X1114425Y-327025D02*
X1143000Y-355600D01*
X1041400Y-615950D02*
X1038300Y-620600D01*
X1111250Y-330200D02*
X952500Y-330200D01*
X1111250Y-330200D02*
X1114425Y-327025D01*
X635000Y-533400D02*
X622300Y-533400D01*
X733425Y-631825D02*
X781050Y-679450D01*
X733425Y-631825D02*
X635000Y-533400D01*
X781050Y-679450D02*
X1085850Y-679450D01*
X1104900Y-660400D01*
X1104900Y-609600D01*
X1101725Y-606425D01*
X723900Y-266700D02*
X711200Y-266700D01*
X723900Y-266700D02*
X736600Y-279400D01*
X736600Y-628650D01*
X733425Y-631825D01*
X1060450Y76200D02*
X1104900Y76200D01*
X1060450Y76200D02*
X1022350Y114300D01*
X628650Y114300D01*
X603250Y88900D01*
X601980Y86360D01*
X368300Y-457200D02*
X368300Y-546100D01*
X368300Y-457200D02*
X330200Y-419100D01*
X330200Y-101600D01*
X527050Y95250D01*
X530860Y96520D01*
X527050Y88900D02*
X596900Y88900D01*
X601980Y86360D01*
X530860Y96520D02*
X527050Y88900D01*
X558800Y-558800D02*
X577850Y-558800D01*
X622300Y-558800D01*
X558800Y-558800D02*
X546100Y-546100D01*
X393700Y-609600D02*
X393700Y-615950D01*
X393700Y-609600D02*
X393700Y-546100D01*
X393700Y-615950D02*
X406400Y-628650D01*
X508000Y-628650D01*
X577850Y-558800D01*
X355600Y-44450D02*
X355600Y95250D01*
X355600Y-44450D02*
X304800Y-95250D01*
X304800Y-520700D01*
X393700Y-609600D01*
X355600Y95250D02*
X358140Y96520D01*
X952500Y-304800D02*
X1047750Y-304800D01*
X1073150Y-279400D01*
X1092200Y-279400D01*
X1104900Y-114300D02*
X1028700Y-114300D01*
X1003300Y-88900D01*
X998220Y-86360D01*
X1104900Y-25400D02*
X1104900Y26200D01*
X1127125Y-47625D02*
X1130300Y-50800D01*
X1127125Y-47625D02*
X1104900Y-25400D01*
X1130300Y-50800D02*
X1130300Y-88900D01*
X1114425Y-104775D02*
X1104900Y-114300D01*
X1114425Y-104775D02*
X1130300Y-88900D01*
X1104900Y-279400D02*
X1092200Y-279400D01*
X1104900Y-279400D02*
X1117600Y-266700D01*
X1117600Y-107950D01*
X1114425Y-104775D01*
X1117600Y-393700D02*
X1117600Y-469900D01*
X1009650Y-571500D02*
X1006475Y-574675D01*
X968375Y-612775D01*
X965200Y-615950D01*
X1009650Y-571500D02*
X1104900Y-571500D01*
X1117600Y-558800D01*
X1117600Y-546100D01*
X968300Y-620600D02*
X965200Y-615950D01*
X965200Y-469900D02*
X952500Y-469900D01*
X965200Y-469900D02*
X1003300Y-508000D01*
X1003300Y-571500D01*
X1006475Y-574675D01*
X1117600Y-546100D02*
X1117600Y-469900D01*
X711200Y-215900D02*
X698500Y-215900D01*
X606425Y-123825D02*
X603250Y-120650D01*
X606425Y-123825D02*
X698500Y-215900D01*
X603250Y-120650D02*
X603250Y-88900D01*
X601980Y-86360D01*
X431800Y-298450D02*
X361950Y-298450D01*
X431800Y-298450D02*
X606425Y-123825D01*
X361950Y-298450D02*
X358140Y-299720D01*
X863600Y-609600D02*
X965200Y-609600D01*
X863600Y-609600D02*
X762000Y-508000D01*
X762000Y-254000D01*
X746125Y-238125D02*
X723900Y-215900D01*
X746125Y-238125D02*
X762000Y-254000D01*
X723900Y-215900D02*
X711200Y-215900D01*
X965200Y-609600D02*
X968375Y-612775D01*
X996950Y-88900D02*
X895350Y-88900D01*
X746125Y-238125D01*
X996950Y-88900D02*
X998220Y-86360D01*
X488950Y101600D02*
X361950Y101600D01*
X488950Y101600D02*
X527050Y139700D01*
X1085850Y139700D01*
X1130300Y95250D01*
X1130300Y-44450D01*
X361950Y101600D02*
X358140Y96520D01*
X1127125Y-47625D02*
X1130300Y-44450D01*
X419100Y-546100D02*
X419100Y-596900D01*
X444500Y-596900D02*
X444500Y-546100D01*
X469900Y-546100D02*
X469900Y-596900D01*
X495300Y-596900D02*
X495300Y-546100D01*
X495300Y-419100D02*
X469900Y-419100D01*
X1066800Y-469900D02*
X1066800Y-546100D01*
X1066800Y-469900D02*
X1066800Y-393700D01*
X952500Y-495300D02*
X863600Y-495300D01*
X863600Y-520700D02*
X952500Y-520700D01*
X876300Y-368300D02*
X863600Y-368300D01*
X876300Y-368300D02*
X927100Y-317500D01*
X927100Y-292100D01*
X965200Y-254000D01*
X1092200Y-254000D01*
X1041400Y-469900D02*
X1041400Y-546100D01*
X1041400Y-469900D02*
X1041400Y-393700D01*
X1069000Y-647700D02*
X937600Y-647700D01*
X711200Y-469900D02*
X654050Y-469900D01*
X641350Y-482600D01*
X622300Y-482600D01*
X647700Y-444500D02*
X711200Y-444500D01*
X647700Y-444500D02*
X635000Y-457200D01*
X622300Y-457200D01*
X635000Y-419100D02*
X711200Y-419100D01*
X635000Y-419100D02*
X622300Y-431800D01*
X654050Y-520700D02*
X711200Y-520700D01*
X654050Y-520700D02*
X641350Y-508000D01*
X622300Y-508000D01*
X863600Y-393700D02*
X895350Y-393700D01*
X933450Y-355600D01*
X952500Y-355600D01*
X901700Y-419100D02*
X863600Y-419100D01*
X901700Y-419100D02*
X939800Y-381000D01*
X952500Y-381000D01*
X914400Y-444500D02*
X863600Y-444500D01*
X914400Y-444500D02*
X952500Y-406400D01*
X711200Y-342900D02*
X603250Y-342900D01*
X552450Y-393700D01*
X457200Y-393700D01*
X444500Y-406400D01*
X444500Y-419100D01*
X596900Y-317500D02*
X711200Y-317500D01*
X596900Y-317500D02*
X546100Y-368300D01*
X450850Y-368300D01*
X419100Y-400050D01*
X419100Y-419100D01*
X590550Y-292100D02*
X711200Y-292100D01*
X590550Y-292100D02*
X552450Y-330200D01*
X457200Y-330200D01*
X393700Y-393700D01*
X393700Y-419100D01*
X609600Y-368300D02*
X711200Y-368300D01*
X609600Y-368300D02*
X558800Y-419100D01*
X546100Y-419100D01*
X615950Y-393700D02*
X711200Y-393700D01*
X615950Y-393700D02*
X565150Y-444500D01*
X533400Y-444500D01*
X520700Y-431800D01*
X520700Y-419100D01*
X1092200Y-469900D02*
X1092200Y-546100D01*
X1092200Y-469900D02*
X1092200Y-393700D01*
D23*
X279400Y-711200D02*
X1168400Y-711200D01*
X1168400Y165100D01*
X279400Y165100D01*
X279400Y-711200D01*
M02*
